<svg xmlns="http://www.w3.org/2000/svg" contentScriptType="text/ecmascript" width="960" height="600" version="1.0"><defs><clipPath id="a"><path d="M300 364h360v87H300Zm0 0"/></clipPath><clipPath id="b"><path d="M343 148.8h316V353H343Zm0 0"/></clipPath><clipPath id="c"><path d="M300 260h358v16H300Zm0 0"/></clipPath></defs><path fill="#FFF" d="M-96-60h1152v720H-96z"/><path fill="#FFF" d="M-96-60h1152v720H-96z"/><path fill="#AEC6D4" d="M-96-60h1152v720H-96z"/><g clip-path="url(#a)"><path fill="#364548" d="M354.3 393.4v-23c0-3 1.9-5.5 5-5.5h.9c3.1 0 5 2.4 5 5.5v48.4c0 11.8-5.8 21.2-16 27.2a30 30 0 0 1-15.4 4.2h-2.2a30.6 30.6 0 0 1-27.2-16 30 30 0 0 1-4.2-15.4v-2.2c0-11.8 5.9-21.2 16-27.2a30 30 0 0 1 15.4-4.2h2.2c8 0 14.8 3.1 20.5 8.2ZM311 417.7c0 8.5 4.2 15 11.6 19a21 21 0 0 0 28.6-8.5 20.8 20.8 0 0 0-6.5-28.2 20.3 20.3 0 0 0-12-3.9c-9.2 0-15.8 4.6-19.7 12.8a20 20 0 0 0-2 8.8Zm91.9-32.5h1.5c12.6 0 22.2 6.2 28.3 17.2 2.4 4.4 3.8 9.2 3.8 14.2v2.2c0 11.8-5.9 21.2-16 27.2-4.8 2.7-10 4.2-15.4 4.2H403a30.5 30.5 0 0 1-27.2-16 30 30 0 0 1-4.2-15.4v-2.2c0-11.8 5.9-21.1 16-27.2 4.7-2.8 10-4.2 15.4-4.2Zm-20.5 32.5a21 21 0 0 0 11 18.7c3.3 2 7 2.9 10.8 2.9 8.2 0 14.2-4.2 18.4-11a20.7 20.7 0 0 0-7.1-28.6 20.3 20.3 0 0 0-11.5-3.6c-9.2 0-15.7 4.6-19.7 12.8a20 20 0 0 0-2 8.8Zm99.4-20.7c-1.7-.8-4.8-1-6.6-1-9-.4-15.6 4.7-19.5 12.7-1.3 2.8-2 5.7-2 8.8 0 9.3 5 15.8 13.3 19.8 3 1.5 7 1.8 10.3 1.8 2.9 0 7-1.8 9.6-3l.5-.3h2.2c2.5.6 4.4 2.1 4.4 4.8v1c0 6.7-12.2 8.2-16.8 8.6a30.8 30.8 0 0 1-33.2-23.4c-.8-2.7-1.1-5.4-1.1-8.2v-2.2c0-11.8 5.8-21.2 16-27.2 4.7-2.8 9.9-4.2 15.4-4.2h2.1c5.8 0 11.2 1.7 16 5l.4.2.2.4c.5.9 1 1.9 1 2.9v1c0 2.9-2.1 4.3-4.6 4.8H488.6c-1.6 0-5.3-1.6-6.7-2.3Zm35.3 7.4 12.8-12.7c1.2-1.1 5.7-6 7.5-6h2.2c2.4.5 4.3 2.1 4.3 4.8v1c0 1.9-2.1 4-3.3 5.2-2.5 2.7-5.1 5.2-7.7 7.8L519.8 418l17 17 4.6 4.9c.6.5 1.4 1.2 1.8 2 .5.8.8 1.6.8 2.5V445.7c-.7 2.5-2.2 4.5-5 4.5h-.9c-1.8 0-3.8-2-5-3.2-2.6-2.4-5-5-7.5-7.4l-8.4-8.2v13.1c0 3-1.9 5.5-5 5.5h-.9c-3.1 0-5-2.5-5-5.5v-74c0-3 1.9-5.4 5-5.4h.9c3.1 0 5 2.5 5 5.5ZM653 385.7h1c3.4 0 5.5 2.2 5.5 5.4 0 4.5-4.3 5.7-8 5.7-4.9 0-9.6 3-13 6.3-4.2 4.1-6 9.4-6 15.3v26.3c0 3-1.9 5.5-5 5.5h-.9c-3.1 0-5-2.5-5-5.5v-27.9c0-10.7 5.2-19.4 14-25.5a30 30 0 0 1 17.4-5.6Zm-77.4 52.2c4 1.4 8.4 1.2 12.5.5 2-.9 7.4-3.2 9.4-2.9h.3l.3.2c1.2.6 2.3 1.4 2.9 2.6 1.4 2.9.7 5.8-2 7.4l-1 .5a31 31 0 0 1-31.6-.4c-5-2.7-8.7-6.6-11.5-11.5l-.6-1a30.8 30.8 0 0 1 1.7-34.6c2.6-3.8 6-6.7 10-9l1.4-.8a30.7 30.7 0 0 1 30.2-.3c5.3 2.6 9.7 6.6 12.7 11.8l.5 1c2.2 3.7-.6 7-3.5 9.2-3.4 2.6-6.8 5.8-10 8.6l-21.7 18.7Zm-9.4-6.6 24.2-20.8 8.6-7.3a21.5 21.5 0 0 0-9-6 20.6 20.6 0 0 0-18.3 1.8c-7.5 4.3-10.7 11.3-10.4 19.9a19 19 0 0 0 4.9 12.4Zm0 0" fill-rule="evenodd"/></g><g clip-path="url(#b)"><path fill="#364548" d="M507.4 213h32.1v33h16.3a70.6 70.6 0 0 0 33.2-8.7c-4.5-6-6.8-13.4-7.5-20.8-1-10 1-23 7.9-30.9l3.3-4 4 3.3a51.2 51.2 0 0 1 20.2 32.5 49.2 49.2 0 0 1 37.4 3.5l4.4 2.5-2.4 4.6c-9 17.7-28 23.2-46.7 22.3-27.8 69.3-88.4 102-162 102-37.9 0-72.7-14.1-92.6-47.8l-.3-.5-2.9-6c-6.7-14.7-9-31-7.4-47.2l.4-4.9h27.5v-32.8h32.2V181h64.3v-32.2h38.6v64.3" fill-rule="evenodd"/></g><path fill="#22A0C8" d="M611.6 225.3c2.1-16.8-10.4-30-18.2-36.2-9 10.4-10.3 37.5 3.7 49a67.7 67.7 0 0 1-41.3 13.2h-206a86.8 86.8 0 0 0 8.5 47.9l2.3 4.2a79 79 0 0 0 4.9 7.3c8.4.6 16.3.8 23.4.6 14-.3 25.5-2 34.2-5a2.5 2.5 0 1 1 1.6 4.7 107.4 107.4 0 0 1-27.8 5l-1 .2a213.9 213.9 0 0 1-25.8-.1h-.1c17.2 19.3 44 31 77.7 31 71.2 0 131.6-31.6 158.4-102.5 19 2 37.2-2.9 45.5-19a44.8 44.8 0 0 0-40-.3" fill-rule="evenodd"/><path fill="#37B1D9" d="M611.6 225.3c2.1-16.8-10.4-30-18.2-36.2-9 10.4-10.3 37.5 3.7 49a67.7 67.7 0 0 1-41.3 13.2H361.9c-.8 27 9.2 47.6 27 60 14-.3 25.5-2 34.2-5a2.5 2.5 0 1 1 1.6 4.7 113 113 0 0 1-27.9 5.1l-.2-.2c24.3 12.5 59.4 12.4 99.7-3a280.1 280.1 0 0 0 116.6-88.3c-.5.2-1 .4-1.3.7" fill-rule="evenodd"/><path fill="#1B81A5" d="M350.1 272.8c1.3 9.4 4 18.3 8.2 26.4l2.3 4.2a79 79 0 0 0 4.9 7.3c8.4.6 16.3.8 23.4.6 14-.3 25.5-2 34.2-5a2.5 2.5 0 1 1 1.6 4.7 112.9 112.9 0 0 1-27.8 5l-1.2.1a213.2 213.2 0 0 1-25.9 0c17.2 19.3 44.2 31 77.9 31 61 0 114-23.2 144.8-74.3H350" fill-rule="evenodd"/><path fill="#1D91B4" d="M363.8 272.8a61.9 61.9 0 0 0 25.1 38.5c14-.3 25.5-2 34.2-5a2.5 2.5 0 1 1 1.6 4.7 114.6 114.6 0 0 1-28 5c24.3 12.5 59.3 12.3 99.6-3.2a263.3 263.3 0 0 0 68.9-40H363.8" fill-rule="evenodd"/><path fill="#23A3C2" d="M377.7 218.5h27.9v27.8h-27.9Zm2.3 2.3h2.2V244H380Zm4.2 0h2.2V244h-2.2Zm4.2 0h2.3V244h-2.3Zm4.2 0h2.3V244h-2.3Zm4.2 0h2.3V244h-2.3Zm4.2 0h2.2V244H401ZM409.9 186.3h27.8v27.9H410Zm2.3 2.3h2.2v23.2h-2.2Zm4.1 0h2.3v23.2h-2.3Zm4.2 0h2.3v23.2h-2.3Zm4.3 0h2.2v23.2h-2.2Zm4.2 0h2.3v23.2H429Zm4.2 0h2.2v23.2h-2.2Zm0 0" fill-rule="evenodd"/><path fill="#34BBDE" d="M409.9 218.5h27.8v27.8H410Zm2.3 2.3h2.2V244h-2.2Zm4.1 0h2.3V244h-2.3Zm4.2 0h2.3V244h-2.3Zm4.3 0h2.2V244h-2.2Zm4.2 0h2.3V244H429Zm4.2 0h2.2V244h-2.2Zm0 0" fill-rule="evenodd"/><path fill="#23A3C2" d="M442 218.5H470v27.8H442Zm2.3 2.3h2.2V244h-2.2Zm4.2 0h2.3V244h-2.3Zm4.2 0h2.3V244h-2.3Zm4.2 0h2.3V244h-2.3Zm4.2 0h2.3V244h-2.3Zm4.3 0h2.2V244h-2.2Zm0 0" fill-rule="evenodd"/><path fill="#34BBDE" d="M442 186.3H470v27.9H442Zm2.3 2.3h2.2v23.2h-2.2Zm4.2 0h2.3v23.2h-2.3Zm4.2 0h2.3v23.2h-2.3Zm4.2 0h2.3v23.2h-2.3Zm4.2 0h2.3v23.2h-2.3Zm4.3 0h2.2v23.2h-2.2ZM474.2 218.5H502v27.8h-27.8Zm2.3 2.3h2.2V244h-2.2Zm4.1 0h2.3V244h-2.3Zm4.2 0h2.3V244h-2.3Zm4.3 0h2.3V244H489Zm4.2 0h2.3V244h-2.3Zm4.2 0h2.2V244h-2.2Zm0 0" fill-rule="evenodd"/><path fill="#23A3C2" d="M474.2 186.3H502v27.9h-27.8Zm2.3 2.3h2.2v23.2h-2.2Zm4.1 0h2.3v23.2h-2.3Zm4.2 0h2.3v23.2h-2.3Zm4.3 0h2.3v23.2H489Zm4.2 0h2.3v23.2h-2.3Zm4.2 0h2.2v23.2h-2.2Zm0 0" fill-rule="evenodd"/><path fill="#34BBDE" d="M474.2 154.2H502V182h-27.8Zm2.3 2.3h2.2v23.2h-2.2Zm4.1 0h2.3v23.2h-2.3Zm4.2 0h2.3v23.2h-2.3Zm4.3 0h2.3v23.2H489Zm4.2 0h2.3v23.2h-2.3Zm4.2 0h2.2v23.2h-2.2Zm0 0" fill-rule="evenodd"/><path fill="#23A3C2" d="M506.3 218.5h27.9v27.8h-27.9Zm2.3 2.3h2.2V244h-2.2Zm4.2 0h2.3V244h-2.3Zm4.2 0h2.3V244H517Zm4.2 0h2.3V244h-2.3Zm4.2 0h2.3V244h-2.3Zm4.3 0h2.2V244h-2.2Zm0 0" fill-rule="evenodd"/><path fill="#D3ECEC" d="M436 291.5a7.7 7.7 0 1 1 0 15.3 7.7 7.7 0 0 1 0-15.3" fill-rule="evenodd"/><path fill="#364548" d="M436 293.6c.7 0 1.4.2 2 .4a2.2 2.2 0 1 0 3 3 5.5 5.5 0 1 1-5-3.4" fill-rule="evenodd"/><g clip-path="url(#c)"><path fill="#364548" d="M300 275.5h357.6c-7.8-2-24.6-4.6-21.8-14.8-14.2 16.4-48.3 11.5-57 3.4-9.5 14-65.4 8.6-69.3-2.2-12 14.1-49.3 14.1-61.4 0-3.9 10.8-59.7 16.1-69.3 2.2-8.6 8-42.8 13-57-3.4 2.8 10.2-14 12.9-21.8 14.8" fill-rule="evenodd"/></g><path fill="#BDD9D7" d="M456.4 346.8c-19-9-29.5-21.3-35.3-34.7-7 2-15.6 3.3-25.4 3.9a211.7 211.7 0 0 1-26.8-.1c17.5 17.4 39 30.9 78.8 31.1 2.9 0 5.8 0 8.7-.2" fill-rule="evenodd"/><path fill="#D3ECEC" d="M428.2 324.5c-2.7-3.6-5.2-8-7-12.4-7.2 2-15.7 3.3-25.5 3.9a81 81 0 0 0 32.5 8.5" fill-rule="evenodd"/></svg>